<svg width="120" height="21" viewBox="0 0 120 21" fill="none" xmlns="http://www.w3.org/2000/svg">
<path d="M59.8372 17.192C58.8985 17.192 58.0985 17.0213 57.4372 16.68C56.7865 16.3387 56.2265 15.88 55.7572 15.304L57.0052 14.136C57.3999 14.616 57.8319 14.9787 58.3012 15.224C58.7812 15.4693 59.3252 15.592 59.9332 15.592C60.6479 15.592 61.1865 15.432 61.5492 15.112C61.9119 14.792 62.0932 14.36 62.0932 13.816C62.0932 13.3787 61.9652 13.032 61.7092 12.776C61.4532 12.52 60.9999 12.328 60.3492 12.2L59.3572 12.024C58.2692 11.8213 57.4532 11.464 56.9092 10.952C56.3652 10.44 56.0932 9.736 56.0932 8.84C56.0932 8.34933 56.1839 7.90667 56.3652 7.512C56.5572 7.10667 56.8185 6.77067 57.1492 6.504C57.4905 6.22667 57.9012 6.01333 58.3812 5.864C58.8612 5.71467 59.3999 5.64 59.9972 5.64C60.8399 5.64 61.5705 5.78933 62.1892 6.088C62.8079 6.376 63.3359 6.79733 63.7732 7.352L62.5092 8.472C62.2212 8.09867 61.8692 7.8 61.4532 7.576C61.0372 7.352 60.5199 7.24 59.9012 7.24C59.2612 7.24 58.7652 7.368 58.4132 7.624C58.0612 7.88 57.8852 8.25333 57.8852 8.744C57.8852 9.21333 58.0292 9.56533 58.3172 9.8C58.6052 10.024 59.0532 10.1947 59.6612 10.312L60.6532 10.52C61.7732 10.7333 62.5892 11.096 63.1012 11.608C63.6239 12.12 63.8852 12.824 63.8852 13.72C63.8852 14.2427 63.7945 14.7173 63.6132 15.144C63.4319 15.5707 63.1652 15.9387 62.8132 16.248C62.4719 16.5467 62.0505 16.7813 61.5492 16.952C61.0479 17.112 60.4772 17.192 59.8372 17.192ZM69.1917 17.192C68.5944 17.192 68.061 17.0907 67.5917 16.888C67.1224 16.6853 66.7224 16.3973 66.3917 16.024C66.061 15.64 65.805 15.1813 65.6237 14.648C65.453 14.104 65.3677 13.5013 65.3677 12.84C65.3677 12.1787 65.453 11.5813 65.6237 11.048C65.805 10.504 66.061 10.0453 66.3917 9.672C66.7224 9.288 67.1224 8.99467 67.5917 8.792C68.061 8.58933 68.5944 8.488 69.1917 8.488C69.7997 8.488 70.333 8.59467 70.7917 8.808C71.261 9.02133 71.6504 9.32 71.9597 9.704C72.269 10.0773 72.4984 10.5147 72.6477 11.016C72.8077 11.5173 72.8877 12.056 72.8877 12.632V13.288H67.1757V13.56C67.1757 14.2 67.3624 14.728 67.7357 15.144C68.1197 15.5493 68.6637 15.752 69.3677 15.752C69.8797 15.752 70.3117 15.64 70.6637 15.416C71.0157 15.192 71.3144 14.888 71.5597 14.504L72.5837 15.512C72.2744 16.024 71.8264 16.4347 71.2397 16.744C70.653 17.0427 69.9704 17.192 69.1917 17.192ZM69.1917 9.848C68.893 9.848 68.6157 9.90133 68.3597 10.008C68.1144 10.1147 67.901 10.264 67.7197 10.456C67.549 10.648 67.4157 10.8773 67.3197 11.144C67.2237 11.4107 67.1757 11.704 67.1757 12.024V12.136H71.0477V11.976C71.0477 11.336 70.8824 10.824 70.5517 10.44C70.221 10.0453 69.7677 9.848 69.1917 9.848ZM76.5943 17C75.997 17 75.549 16.8507 75.2503 16.552C74.9623 16.2427 74.8183 15.816 74.8183 15.272V5.16H76.5623V15.576H77.7143V17H76.5943ZM81.0631 17C80.4657 17 80.0177 16.8507 79.7191 16.552C79.4311 16.2427 79.2871 15.816 79.2871 15.272V5.16H81.0311V15.576H82.1831V17H81.0631ZM87.1136 17.192C86.5162 17.192 85.9829 17.0907 85.5136 16.888C85.0442 16.6853 84.6442 16.3973 84.3136 16.024C83.9829 15.64 83.7269 15.1813 83.5456 14.648C83.3749 14.104 83.2896 13.5013 83.2896 12.84C83.2896 12.1787 83.3749 11.5813 83.5456 11.048C83.7269 10.504 83.9829 10.0453 84.3136 9.672C84.6442 9.288 85.0442 8.99467 85.5136 8.792C85.9829 8.58933 86.5162 8.488 87.1136 8.488C87.7216 8.488 88.2549 8.59467 88.7136 8.808C89.1829 9.02133 89.5722 9.32 89.8816 9.704C90.1909 10.0773 90.4202 10.5147 90.5696 11.016C90.7296 11.5173 90.8096 12.056 90.8096 12.632V13.288H85.0976V13.56C85.0976 14.2 85.2842 14.728 85.6576 15.144C86.0416 15.5493 86.5856 15.752 87.2896 15.752C87.8016 15.752 88.2336 15.64 88.5856 15.416C88.9376 15.192 89.2362 14.888 89.4816 14.504L90.5056 15.512C90.1962 16.024 89.7482 16.4347 89.1616 16.744C88.5749 17.0427 87.8922 17.192 87.1136 17.192ZM87.1136 9.848C86.8149 9.848 86.5376 9.90133 86.2816 10.008C86.0362 10.1147 85.8229 10.264 85.6416 10.456C85.4709 10.648 85.3376 10.8773 85.2416 11.144C85.1456 11.4107 85.0976 11.704 85.0976 12.024V12.136H88.9696V11.976C88.9696 11.336 88.8042 10.824 88.4736 10.44C88.1429 10.0453 87.6896 9.848 87.1136 9.848ZM92.7402 17V8.68H94.4842V10.28H94.5642C94.6815 9.85333 94.9269 9.48 95.3002 9.16C95.6735 8.84 96.1909 8.68 96.8522 8.68H97.3162V10.36H96.6282C95.9349 10.36 95.4015 10.472 95.0282 10.696C94.6655 10.92 94.4842 11.2507 94.4842 11.688V17H92.7402ZM98.8652 5.16H100.609V12.424H100.689L101.841 10.936L103.841 8.68H105.873L102.961 11.896L106.225 17H104.145L101.761 13.032L100.609 14.28V17H98.8652V5.16ZM108.495 7.192C108.133 7.192 107.866 7.10667 107.695 6.936C107.535 6.76533 107.455 6.54667 107.455 6.28V6.008C107.455 5.74133 107.535 5.52267 107.695 5.352C107.866 5.18133 108.133 5.096 108.495 5.096C108.858 5.096 109.119 5.18133 109.279 5.352C109.439 5.52267 109.519 5.74133 109.519 6.008V6.28C109.519 6.54667 109.439 6.76533 109.279 6.936C109.119 7.10667 108.858 7.192 108.495 7.192ZM107.615 8.68H109.359V17H107.615V8.68ZM111.85 17V8.68H113.594V10.056H113.674C113.855 9.608 114.127 9.23467 114.49 8.936C114.863 8.63733 115.37 8.488 116.01 8.488C116.863 8.488 117.524 8.77067 117.994 9.336C118.474 9.89067 118.714 10.6853 118.714 11.72V17H116.97V11.944C116.97 10.6427 116.447 9.992 115.402 9.992C115.178 9.992 114.954 10.024 114.73 10.088C114.516 10.1413 114.324 10.2267 114.154 10.344C113.983 10.4613 113.844 10.6107 113.738 10.792C113.642 10.9733 113.594 11.1867 113.594 11.432V17H111.85Z" fill="white"/>
<path d="M2 18.32H20.3161C20.4246 18.32 20.5352 18.3024 20.6367 18.264C24.4801 16.8113 23.0349 11.28 20.48 11.28H8.93595C8.79364 11.28 8.65034 11.25 8.5233 11.1859C4.83405 9.32329 5.86411 4.16979 8.60679 3.38947C8.68133 3.36826 8.75917 3.35999 8.83666 3.35999H29.56C30.1123 3.35999 30.56 3.8077 30.56 4.35999V19" stroke="white" stroke-width="3" stroke-linecap="round"/>
<path d="M41.5 3.5L32 10.12" stroke="white" stroke-width="3" stroke-linecap="round"/>
<path d="M31 12L42 18.5" stroke="white" stroke-width="3" stroke-linecap="round"/>
</svg>
