<svg width="503" height="513" viewBox="0 0 503 513" fill="none" xmlns="http://www.w3.org/2000/svg">
<path d="M266.756 18C261.456 7 250.256 0 237.956 0C225.656 0 214.556 7 209.156 18L144.856 150.3L1.25645 171.5C-10.7436 173.3 -20.7436 181.7 -24.4436 193.2C-28.1436 204.7 -25.1436 217.4 -16.5436 225.9L87.6564 329L63.0564 474.7C61.0564 486.7 66.0564 498.9 75.9564 506C85.8564 513.1 98.9564 514 109.756 508.3L238.056 439.8L366.356 508.3C377.156 514 390.256 513.2 400.156 506C410.056 498.8 415.056 486.7 413.056 474.7L388.356 329L492.556 225.9C501.156 217.4 504.256 204.7 500.456 193.2C496.656 181.7 486.756 173.3 474.756 171.5L331.056 150.3L266.756 18Z" fill="#DCEC1E"/>
</svg>
